<?xml version="1.0" encoding="iso-8859-1"?>
<!-- Generator: Adobe Illustrator 19.0.0, SVG Export Plug-In . SVG Version: 6.00 Build 0)  -->
<svg version="1.1" id="Layer_1" xmlns="http://www.w3.org/2000/svg" xmlns:xlink="http://www.w3.org/1999/xlink" x="0px" y="0px"
	 viewBox="0 0 512 512" style="enable-background:new 0 0 512 512;" xml:space="preserve">
<g>
	<g>
		<path style="fill:#FFF;stroke:#000;stroke-width:20px;" d="M437.333,32H74.667C33.493,32,0,65.493,0,106.667V320c0,36.672,26.581,67.264,61.483,73.493
			c-16.32,26.496-34.901,51.179-35.115,51.477c-0.064,0.085-0.149,0.192-0.213,0.299c-3.115,3.819-4.821,8.533-4.821,13.397
			c0,11.755,9.579,21.333,21.333,21.333c2.923,0,5.845-0.683,8.725-2.005c27.051-7.68,112.832-34.901,163.947-83.328h221.995
			C478.507,394.667,512,361.173,512,320V106.667C512,65.493,478.507,32,437.333,32z"/>
	</g>
</g>
<g>
</g>
<g>
</g>
<g>
</g>
<g>
</g>
<g>
</g>
<g>
</g>
<g>
</g>
<g>
</g>
<g>
</g>
<g>
</g>
<g>
</g>
<g>
</g>
<g>
</g>
<g>
</g>
<g>
</g>
</svg>
